<?xml version="1.0" encoding="UTF-8" standalone="no"?>
<svg width="245px" height="245px" viewBox="0 0 245 245" version="1.1" xmlns="http://www.w3.org/2000/svg" xmlns:xlink="http://www.w3.org/1999/xlink" xmlns:sketch="http://www.bohemiancoding.com/sketch/ns">
    <!-- Generator: Sketch 3.3.3 (12072) - http://www.bohemiancoding.com/sketch -->
    <title>Blog Logo Copy 2</title>
    <desc>Created with Sketch.</desc>
    <defs></defs>
    <g id="Page-1" stroke="none" stroke-width="1" fill="none" fill-rule="evenodd" sketch:type="MSPage">
        <g id="Blog-Logo-Copy-2" sketch:type="MSArtboardGroup">
            <circle id="Oval-11" opacity="0.8" fill="#413433" sketch:type="MSShapeGroup" cx="122.5" cy="122.5" r="122.5"></circle>
            <g id="Group" sketch:type="MSLayerGroup" transform="translate(10.000000, 37.000000)">
                <g id="Sign" transform="translate(30.000000, 0.000000)">
                    <g id="Ring" stroke="#E2E4DF" sketch:type="MSShapeGroup">
                        <path d="M0,97.9251352 C6.63422087,137.68995 41.2030181,168 82.8511069,168 C124.473144,168 159.024744,137.727857 165.689732,97.9997437 M165.673354,69.9029872 C158.968332,30.2227424 124.439169,0 82.8511069,0 C41.230564,0 6.6799513,30.2699693 0.0132001972,69.9959763" id="Oval-1-Copy"></path>
                        <path d="M2.16102406,98.9770913 C9.19932414,137.112469 42.624353,166 82.7964263,166 C123.252392,166 156.865615,136.702735 163.577085,98.1672146 M163.572682,69.8075248 C156.850925,31.2844625 123.243552,2 82.7964263,2 C42.3086795,2 8.67443066,31.3433133 2,69.9236197" id="Oval-1" stroke-width="2"></path>
                    </g>
                    <path d="M58.4947127,69.5 L22.4676955,46.846553 L23.5323045,45.153447 L61.6497728,69.12135 L61.4116813,69.5 L58.4947127,69.5 Z M108.140804,69.5 L144.167821,46.846553 L143.103212,45.153447 L104.985744,69.12135 L105.223836,69.5 L108.140804,69.5 Z M58.4947127,98.153447 L22.4676955,120.806894 L23.5323045,122.5 L61.6497728,98.5320971 L61.4116813,98.153447 L58.4947127,98.153447 L58.4947127,98.153447 Z M108.140804,98.153447 L144.167821,120.806894 L143.103212,122.5 L104.985744,98.5320971 L105.223836,98.153447 L108.140804,98.153447 L108.140804,98.153447 Z" id="Line-2-Copy" fill="#E2E4DF" sketch:type="MSShapeGroup"></path>
                    <g id="Pen" transform="translate(82.000000, 131.500000) scale(-1, 1) translate(-82.000000, -131.500000) translate(62.000000, 125.000000)" fill="#E2E4DF" sketch:type="MSShapeGroup">
                        <g id="Group">
                            <path d="M15.5356677,11.5532367 C14.8319288,10.3744906 14.3781602,8.50832129 14.3678338,6.36277466 C14.3581009,4.41034987 14.7558457,2.36726146 15.4665875,1.04471644 C10.5265282,0.0287121294 1.40510386,0.0760097035 1.40510386,0.0760097035 C1.40510386,0.0760097035 -1.75632047,1.92728679 1.40510386,5.57622911 C4.56652819,9.22576712 1.40510386,12.5045493 1.40510386,12.5045493 C10.4375074,12.5044302 14.2367953,11.860373 15.5356677,11.5532367 L15.5356677,11.5532367 Z" id="Shape"></path>
                            <path d="M16.7332938,2.60827655 L16.819822,2.44827493 L17.0011869,2.4424372 C17.0115134,2.44184151 17.748724,2.41849057 18.9882493,2.40288356 C18.5292582,1.05829811 17.8752522,0.232794609 17.2658754,0.232794609 C16.8727596,0.234700809 16.4654006,0.582701348 16.1051632,1.18601348 C15.4693175,2.25193639 14.9831454,4.12465822 14.9940653,6.35955795 C15.0049852,8.56538814 15.4795252,10.3162323 16.1057567,11.316034 C16.4782196,11.9108873 16.9037389,12.240779 17.3175074,12.240779 L17.3175074,12.5544679 L17.3220178,12.240779 C18.108368,12.2368474 18.9262908,11.0399925 19.3310386,9.0909035 C19.4324036,9.10257898 19.534362,9.11485013 19.6370326,9.12652561 C19.7402967,9.13879677 19.844273,9.15118706 19.9482493,9.16405391 C24.0593472,9.66169111 28.8340653,10.4302469 28.8340653,10.4302469 C33.4777448,6.54481671 36.6327596,7.08784528 36.7005341,6.68933046 C36.7683086,6.29081563 36.6695549,5.61888032 36.6695549,5.61888032 L34.7018398,5.78281348 C32.8529377,6.29736819 30.8089021,7.1941159 29.20273,8.75839084 L29.0904451,8.86787817 L20.1742433,7.52388841 L19.8637389,7.47718652 L19.5538279,7.43048464 L18.5247478,7.27560593 L17.9178635,7.18422749 L16.9501484,7.26524097 L17.0462908,8.85608356 C17.4401187,8.88979946 17.8617211,8.9312593 18.301365,8.97724636 C18.0818991,9.99718221 17.7410089,10.6555358 17.3575074,10.6555358 C16.6951929,10.6555358 16.1586944,8.70180054 16.1586944,6.29188787 C16.1586944,5.93745391 16.171632,5.63996765 16.1935905,5.38012884 C16.1793472,4.5392566 16.2735905,3.46034771 16.7332938,2.60827655 L16.7332938,2.60827655 Z" id="Shape"></path>
                            <path d="M39.5211869,3.86994232 C39.459822,3.84790189 39.3946588,3.83241402 39.3255786,3.83241402 C39.1480119,3.83241402 38.9963205,3.9166442 38.894362,4.04042803 C35.9886053,3.64906146 32.9426706,3.4014938 30.0369139,3.24923612 C29.9439763,3.65871159 29.4197033,3.97299623 28.7806528,3.97299623 C28.0840356,3.97299623 27.5198813,3.59973854 27.5069436,3.13712776 C25.1570326,3.05289757 22.9652226,3.02442372 21.1065875,3.02442372 C20.6417804,3.02442372 20.2117507,3.02632992 19.8135312,3.02895094 C19.7050445,3.02954663 19.6036795,3.03085714 19.5010089,3.03157197 C19.3919288,3.03288248 19.2802374,3.03347817 19.1769733,3.03478868 C18.2098516,3.04574933 17.5210682,3.06195202 17.2098516,3.07112561 C17.0962611,3.31797844 17.0187537,3.58758652 16.96,3.86172183 C16.7469436,4.85640054 16.8418991,5.93268841 16.9006528,6.38755526 L18.5527596,6.63702911 L19.584451,6.7925035 L19.8969733,6.83980108 L20.2087834,6.88709865 L20.6593472,6.95512615 L28.8763205,8.19403666 C29.8995846,7.22783181 31.0797626,6.51705768 32.2727596,5.98570458 C34.8802374,4.8244717 37.5445697,4.54330728 38.7906231,4.4784965 C38.8202967,4.60490135 38.8919881,4.71117197 38.99727,4.78563288 C39.0902077,4.85175418 39.2,4.89833693 39.3252226,4.89833693 C39.5544214,4.89833693 39.7506231,4.76549865 39.8365579,4.57690404 C39.8662315,4.51209326 39.8830861,4.44084906 39.8830861,4.36495849 C39.8830861,4.28906792 39.865638,4.21853854 39.8365579,4.15301294 C39.7767359,4.0222 39.6625519,3.92117143 39.5211869,3.86994232 L39.5211869,3.86994232 Z" id="Shape"></path>
                        </g>
                    </g>
                    <text id="EST.-2015" sketch:type="MSTextLayer" font-family="Apple SD Gothic Neo" font-size="9" font-weight="normal" fill="#E2E4DF">
                        <tspan x="64" y="38">EST. 2015</tspan>
                    </text>
                </g>
                <g id="Banner" transform="translate(0.000000, 69.000000)">
                    <path d="M208,5 L223.999614,5 C225.104396,5 225.517679,5.74759722 224.910788,6.68827791 L217.089212,18.8117221 C216.487657,19.7441322 216.50965,21.2389918 217.137391,22.1492172 L224.862609,33.3507828 C225.490773,34.2616203 225.108969,35 224.004484,35 L195.577148,35 M30.9199219,35 L2.00758586,35 C0.898826806,35 0.54549171,34.2809427 1.20865847,33.4067684 L9.79134153,22.0932316 C10.4588652,21.2133141 10.4842011,19.7731924 9.84359784,18.8705242 L1.15640216,6.62947576 C0.51773888,5.72954115 0.894580258,5 1.9985435,5 L19,5" id="Rectangle-1-Copy" stroke="#E2E4DF" stroke-width="2" stroke-linecap="round" stroke-linejoin="round" sketch:type="MSShapeGroup"></path>
                    <rect id="Rectangle-1" stroke="#E2E4DF" stroke-width="2" sketch:type="MSShapeGroup" x="19" y="0" width="189" height="30" rx="2"></rect>
                    <text id="Gabriels-Blog" sketch:type="MSTextLayer" font-family="Tribal Type" font-size="22" font-weight="normal" sketch:alignment="middle" letter-spacing="5.5" fill="#E2E4DF">
                        <tspan x="26.545" y="25">Gabriels Blo</tspan>
                        <tspan x="190.115" y="25">g</tspan>
                    </text>
                    <path d="M23,30 L30,34" id="Line" stroke="#E2E4DF" stroke-width="2" stroke-linecap="round" sketch:type="MSShapeGroup"></path>
                    <path d="M196,30 L204,34" id="Line-Copy" stroke="#E2E4DF" stroke-width="2" stroke-linecap="round" sketch:type="MSShapeGroup" transform="translate(200.000000, 32.000000) scale(-1, 1) translate(-200.000000, -32.000000) "></path>
                    <g id="apostroph" transform="translate(113.000000, 6.000000)" fill="#D8D8D8" sketch:type="MSShapeGroup">
                        <path d="M4.05901699,0.5 L3.9472136,0.723606798 L2.05901699,4.5 L0.940983006,4.5 L1.0527864,4.2763932 L2.94098301,0.5 L4.05901699,0.5 Z" id="Line"></path>
                    </g>
                </g>
            </g>
        </g>
    </g>
</svg>