<?xml version="1.0" encoding="UTF-8" standalone="no"?>
<svg width="39px" height="48px" viewBox="0 0 39 48" version="1.1" xmlns="http://www.w3.org/2000/svg" xmlns:xlink="http://www.w3.org/1999/xlink" xmlns:sketch="http://www.bohemiancoding.com/sketch/ns">
    <!-- Generator: Sketch 3.3.3 (12072) - http://www.bohemiancoding.com/sketch -->
    <title>Shape</title>
    <desc>Created with Sketch.</desc>
    <defs></defs>
    <g id="Page-1" stroke="none" stroke-width="1" fill="none" fill-rule="evenodd" sketch:type="MSPage">
        <g id="Artboard-7" sketch:type="MSArtboardGroup" transform="translate(-11.000000, -4.000000)" stroke="#000000" fill="#000000">
            <path d="M18.8073656,34.7457807 C18.8956856,34.8811077 19.0661977,35.1336398 19.3155953,35.489711 C19.7295956,36.0807896 20.2158371,36.7480193 20.7710253,37.4777384 C22.3559929,39.5609616 24.1769458,41.7296771 26.2078088,43.8746321 C30.1201837,48.0068006 36.0438665,50.9976375 39.2894298,51.3366844 C40.0544116,51.4165981 41.0450117,51.1285888 42.2392929,50.5593037 C42.7056098,50.3370217 43.1937391,50.0753488 43.6962737,49.7822634 C44.2690314,49.448223 44.8309925,49.0909953 45.3592719,48.7337534 C45.6768068,48.5190247 45.9135072,48.3513165 46.0460198,48.2539409 C46.1477884,48.1790332 46.3219112,48.0464584 46.5447472,47.8692696 C46.9157683,47.5742508 47.2869303,47.2615736 47.634703,46.9439395 C47.9092286,46.6932046 48.1581797,46.4491865 48.3758422,46.2145263 C49.3229336,45.1934745 49.7022736,44.3716418 49.03475,43.7653268 C47.7776867,42.62353 40.9229329,37.5807179 40.0288709,37.2553059 C39.4432753,37.0421665 39.4348311,37.0463451 37.1001454,38.3912379 C36.7936838,38.5677747 36.5468355,38.7048854 36.3108259,38.8278588 C35.1920628,39.4107928 34.4454168,39.5839568 34.0491765,39.345443 C32.6218501,38.4862748 31.1406157,37.1907483 29.6555437,35.576312 C28.6487528,34.4818199 27.7005285,33.3073103 26.8403658,32.1327278 C26.5393499,31.72168 26.2710157,31.3402303 26.0389595,30.9983305 C25.9004798,30.7943017 25.8053775,30.6496133 25.7572248,30.5742022 C25.6086112,30.3414607 25.2994618,30.2732616 25.0667203,30.4218752 C24.8339788,30.5704889 24.7657797,30.8796383 24.9143933,31.1123798 C24.967439,31.1954538 25.0676569,31.347925 25.2115431,31.5599195 C25.4500967,31.9113921 25.7252653,32.3025573 26.0335686,32.7235563 C26.9143179,33.9262505 27.8853554,35.1290175 28.9195651,36.2533169 C30.4637641,37.9320305 32.0127801,39.2868407 33.5334577,40.2022009 C34.3410904,40.6883492 35.3560354,40.4529606 36.7729131,39.7146933 C37.0233941,39.5841796 37.2816584,39.4407279 37.5992993,39.2577512 C39.1933306,38.3395115 39.5707549,38.1527431 39.6868507,38.1949985 C40.4205547,38.4620449 47.1983122,43.4482134 48.3623958,44.5055563 C48.3899966,44.5306263 48.2079199,44.9250918 47.6426807,45.5344717 C47.4453731,45.7471876 47.2157043,45.9723053 46.9603148,46.2055625 C46.6310274,46.5063133 46.2767682,46.8047511 45.9223679,47.0865538 C45.7099511,47.2554578 45.5455439,47.3806352 45.4535476,47.4483501 C45.3313369,47.5381552 45.1051363,47.698424 44.7990955,47.90538 C44.2880822,48.250946 43.7444439,48.5965262 43.1924794,48.9184397 C42.7125169,49.1983607 42.2483708,49.4471769 41.8090022,49.6566134 C40.7691913,50.1522662 39.9251789,50.3976562 39.3933292,50.3420966 C36.3884935,50.0281972 30.6843937,47.1482267 26.9339643,43.1871015 C24.9292439,41.0697578 23.131127,38.9282396 21.5668712,36.8722392 C21.0198313,36.15323 20.5413059,35.4965883 20.1346675,34.9160205 C19.8916818,34.5691037 19.7272718,34.3256091 19.6447974,34.1992387 C19.493874,33.9679884 19.1840609,33.9028705 18.9528105,34.0537939 C18.7215601,34.2047173 18.6564422,34.5145303 18.8073656,34.7457807 L18.8073656,34.7457807 Z M26.8969934,32.1960325 C26.8549104,32.1410704 26.7739099,32.0327042 26.6595657,31.875573 C26.467781,31.6120232 26.2537594,31.3089389 26.0230784,30.9709746 C25.3634522,30.0045748 24.7036863,28.954031 24.0884462,27.8569734 C23.165909,26.211963 22.4275229,24.6106384 21.9408664,23.1131844 C21.748151,22.5201944 21.5971996,21.9495915 21.4907376,21.4042056 C21.445295,21.171411 21.5337605,20.8815432 21.7733165,20.5267011 C22.0736259,20.0818681 22.5492121,19.6106655 23.3128917,18.9631948 C23.4758522,18.8250319 24.0283665,18.3649816 24.0490659,18.347621 C24.3352714,18.1075791 24.5373355,17.9317564 24.7139552,17.765947 C25.2368483,17.2750584 25.5,16.9134073 25.5,16.5 C25.5,15.548559 23.1057705,7.38245415 22.4627735,5.81068358 C22.0881802,4.89501111 21.0662192,5.05512755 19.5615712,5.75890963 C19.3066188,5.87816075 19.041005,6.01319717 18.7677466,6.16115874 C18.3953411,6.36280556 18.0270813,6.57827262 17.6786022,6.79373878 C17.469053,6.923304 17.3118248,7.02462679 17.2229797,7.08375517 C17.1806561,7.11197069 17.104126,7.1639912 16.9979608,7.23774176 C16.8222437,7.35980858 16.6267554,7.49897968 16.4163827,7.65297803 C15.815146,8.09309897 15.2137561,8.56477734 14.650892,9.05038553 C14.0542621,9.56512505 13.535406,10.0663112 13.1158988,10.545748 C12.5350786,11.2095427 12.1553244,11.8171493 12.0149287,12.3787322 C11.2234806,15.544525 12.0079291,22.1338925 14.5527864,27.2236071 L14.5527869,27.2236081 C15.8737892,29.8656127 17.2889124,32.3184928 18.7044109,34.5203793 C19.2002369,35.2916641 19.6609234,35.9767875 20.0747591,36.5679813 C20.3240575,36.9241218 20.5030414,37.1707219 20.6,37.3 C20.7656855,37.5209139 21.0790861,37.5656854 21.3,37.4 C21.5209139,37.2343145 21.5656854,36.9209139 21.4,36.7 C21.3094586,36.5792782 21.1368801,36.3415033 20.893991,35.9945189 C20.4875142,35.4138379 20.0341383,34.7395865 19.5455894,33.9796216 C18.1485881,31.8065087 16.7512115,29.3843894 15.4472141,26.7763945 L15.4472135,26.7763935 C13.0076959,21.897358 12.2523259,15.5522497 12.9850713,12.6212678 C13.0790505,12.2453508 13.3828899,11.7592077 13.8684755,11.2042526 C14.2536694,10.7640309 14.7402337,10.294037 15.3041253,9.80754227 C15.8448512,9.34103364 16.4258791,8.88532552 17.0070602,8.45988575 C17.3554619,8.20484661 17.6254497,8.01729204 17.7773501,7.91602516 C17.8570575,7.8629783 18.0050458,7.76761 18.2044998,7.64428667 C18.5376929,7.4382719 18.889796,7.23225806 19.2438968,7.04052268 C19.5008062,6.90141364 19.7491978,6.77513286 19.9852539,6.66472031 C20.9226902,6.22624511 21.5144078,6.13353733 21.5372265,6.18931642 C22.1326638,7.64482978 24.5,15.7192086 24.5,16.5 C24.5,16.630439 24.3323172,16.7878585 22.6662046,18.2004394 C21.8365193,18.9038718 21.3105017,19.4250408 20.9445085,19.967168 C20.5698208,20.5221738 20.4050658,21.0620137 20.5092624,21.5957944 C20.6238354,22.182732 20.7850785,22.7922378 20.9898293,23.4222612 C21.4991233,24.9893713 22.2639782,26.6480984 23.2162413,28.3461141 C23.8468508,29.4705774 24.5219238,30.5454948 25.1971365,31.5347299 C25.4336491,31.8812378 25.6534501,32.1925065 25.8509933,32.4639697 C25.970246,32.6278463 26.0561004,32.7427061 26.1030066,32.8039675 C26.2708832,33.0232209 26.5847141,33.06487 26.8039675,32.8969934 C27.0232209,32.7291168 27.06487,32.4152859 26.8969934,32.1960325 L26.8969934,32.1960325 Z" id="Shape" sketch:type="MSShapeGroup"></path>
        </g>
    </g>
</svg>