<?xml version="1.0" encoding="UTF-8" standalone="no"?>
<svg width="45px" height="37px" viewBox="0 0 45 37" version="1.1" xmlns="http://www.w3.org/2000/svg" xmlns:xlink="http://www.w3.org/1999/xlink" xmlns:sketch="http://www.bohemiancoding.com/sketch/ns">
    <!-- Generator: Sketch 3.3.3 (12072) - http://www.bohemiancoding.com/sketch -->
    <title>Shape</title>
    <desc>Created with Sketch.</desc>
    <defs></defs>
    <g id="Page-1" stroke="none" stroke-width="1" fill="none" fill-rule="evenodd" sketch:type="MSPage">
        <g id="Artboard-7" sketch:type="MSArtboardGroup" transform="translate(-49.000000, -8.000000)" fill="#000000">
            <path d="M91.8662236,12.216 C92.1932236,11.11 91.8192236,9.914 90.9132236,9.194 C90.3992236,8.783 89.7772236,8.576 89.1462236,8.576 C88.6482236,8.576 88.1502236,8.706 87.7032236,8.973 C86.8152236,9.494 85.8862236,9.912 84.9162236,10.207 C83.0622236,8.789 80.7632236,8 78.4002236,8 C72.9842236,8 68.4972236,12.04 67.7902236,17.264 C63.4722236,16.34 59.5382236,13.961 56.7042236,10.485 C56.1642236,9.819 55.3542236,9.439 54.5082236,9.439 C54.4372236,9.439 54.3622236,9.444 54.2862236,9.449 C53.3582236,9.522 52.5292236,10.045 52.0602236,10.847 C51.1082236,12.478 50.6072236,14.338 50.6072236,16.233 C50.6072236,17.513 50.8342236,18.758 51.2542236,19.921 C50.8022236,20.435 50.5402236,21.101 50.5402236,21.805 C50.5402236,24.613 51.6002236,27.195 53.3662236,29.135 C53.2572236,29.619 53.2742236,30.131 53.4332236,30.621 C54.0442236,32.535 55.1622236,34.182 56.6082236,35.439 C55.6692236,35.652 54.6972236,35.761 53.7112236,35.761 C53.2002236,35.761 52.6832236,35.728 52.1622236,35.669 C52.0522236,35.655 51.9422236,35.648 51.8302236,35.648 C50.6442236,35.648 49.5702236,36.39 49.1672236,37.533 C48.7202236,38.773 49.1932236,40.16 50.3012236,40.873 C54.3722236,43.48 59.0762236,44.859 63.9032236,44.859 C79.5582236,44.859 88.9662236,32.259 89.1352236,19.96 C90.4092236,18.875 91.5292236,17.626 92.4792236,16.232 C92.8382236,15.758 93.0512236,15.169 93.0512236,14.524 C93.0512236,13.575 92.5832236,12.733 91.8662236,12.216 L91.8662236,12.216 Z M86.2782236,18.601 C86.2962236,18.938 86.3032236,19.278 86.3032236,19.619 C86.3032236,30.023 78.3842236,42.019 63.9032236,42.019 C59.4582236,42.019 55.3192236,40.716 51.8332236,38.482 C52.4462236,38.55 53.0762236,38.593 53.7112236,38.593 C57.4002236,38.593 60.7942236,37.333 63.4902236,35.22 C60.0412236,35.159 57.1362236,32.88 56.1332236,29.753 C56.6142236,29.845 57.1082236,29.896 57.6112236,29.896 C58.3312236,29.896 59.0272236,29.798 59.6862236,29.619 C56.0842236,28.892 53.3692236,25.714 53.3692236,21.896 L53.3692236,21.798 C54.4312236,22.386 55.6462236,22.74 56.9362236,22.78 C54.8242236,21.368 53.4362236,18.956 53.4362236,16.226 C53.4362236,14.784 53.8242236,13.433 54.5022236,12.27 C58.3822236,17.033 64.1852236,20.166 70.7292236,20.494 C70.5932236,19.92 70.5272236,19.316 70.5272236,18.699 C70.5272236,14.355 74.0512236,10.83 78.3972236,10.83 C80.6632236,10.83 82.7102236,11.786 84.1462236,13.313 C85.9372236,12.962 87.6242236,12.307 89.1452236,11.404 C88.5562236,13.241 87.3072236,14.784 85.6842236,15.758 C87.2752236,15.57 88.7902236,15.147 90.2042236,14.518 C89.1512236,16.105 87.8182236,17.491 86.2782236,18.601 L86.2782236,18.601 Z" id="Shape" sketch:type="MSShapeGroup"></path>
        </g>
    </g>
</svg>